# xmcd
# 
# Track frame offsets:
#     150
#     39477
#     68643
#     109270
#     137006
#     158841
#     176517
#     209695
#     237259
#     266111
#     298271
#     312563
# 
# Disc length: 4615
# 
# Revision: 2
# Processed by: cddbd v1.5.2PL0 Copyright (c) Steve Scherf et al.
# Submitted via: fre:ac v1.0.27
# 
DISCID=ba12050c
DTITLE=Dino Saluzzi Group - Juan Condori
DYEAR=2006
DGENRE=Folk-Jazz
TTITLE0=La vuelta de Pedro Orillas
TTITLE1=Milonga de mis amores
TTITLE2=Juan Condori
TTITLE3=Memoria
TTITLE4=La parecida
TTITLE5=Inside
TTITLE6=Soles - La camposanteña
TTITLE7=Los cosas amadas
TTITLE8=A Juana, mi madre
TTITLE9=Los sauces
TTITLE10=Improvisación
TTITLE11=Chiriguan
EXTD=YEAR: 2006
EXTT0=
EXTT1=
EXTT2=
EXTT3=
EXTT4=
EXTT5=
EXTT6=
EXTT7=
EXTT8=
EXTT9=
EXTT10=
EXTT11=
PLAYORDER=
